<?xml version="1.0" encoding="UTF-8"?>
<svg width="50px" height="53px" viewBox="0 0 50 53" version="1.1" xmlns="http://www.w3.org/2000/svg" xmlns:xlink="http://www.w3.org/1999/xlink">
    <!-- Generator: Sketch 40.1 (33804) - http://www.bohemiancoding.com/sketch -->
    <title>Group 3</title>
    <desc>Created with Sketch.</desc>
    <defs></defs>
    <g id="r" stroke="none" stroke-width="1" fill="none" fill-rule="evenodd">
        <g id="mobile-number-copy-14" transform="translate(-222.000000, -147.000000)" fill="#FFFFFF">
            <g id="Group-3" transform="translate(222.000000, 147.000000)">
                <g id="alat" transform="translate(3.000000, 43.000000)">
                    <polygon id="Path" points="39.1587097 2.67468266 39.1587097 9.55243807 41.2141935 9.55243807 41.2141935 2.67468266 43.2 2.67468266 43.2 0.636829205 37.1612903 0.636829205 37.1612903 2.67468266"></polygon>
                    <path d="M29.9070968,9.55243807 L31.9393548,9.55243807 L31.9393548,9.22128688 L28.2696774,0.522199948 L27.3754839,0.522199948 L23.7174194,9.22128688 L23.7174194,9.55243807 L25.7496774,9.55243807 L26.2258065,8.43161867 L29.4309677,8.43161867 L29.9070968,9.55243807 Z M28.7574194,6.4829213 L26.8993548,6.4829213 L27.8167742,4.13938983 L28.7574194,6.4829213 Z" id="Combined-Shape"></path>
                    <polygon id="Path" points="15.5458065 0.636829205 13.4554839 0.636829205 13.4554839 9.55243807 18.4954839 9.55243807 18.4954839 7.50184803 15.5458065 7.50184803"></polygon>
                    <path d="M6.20129032,9.55243807 L8.23354839,9.55243807 L8.23354839,9.22128688 L4.56387097,0.522199948 L3.66967742,0.522199948 L0.0116129032,9.22128688 L0.0116129032,9.55243807 L2.04387097,9.55243807 L2.52,8.43161867 L5.72516129,8.43161867 L6.20129032,9.55243807 Z M5.0516129,6.4829213 L3.19354839,6.4829213 L4.11096774,4.13938983 L5.0516129,6.4829213 Z" id="Combined-Shape"></path>
                </g>
                <path d="M30.6165398,0 C30.9186329,0 31.1955807,0.154473153 31.3466273,0.413463293 L49.8892559,32.1796943 C49.9597852,32.3042111 50,32.4486496 50,32.5930881 C50,33.0513034 49.6224712,33.4248452 49.159256,33.4248452 L33.8538774,33.4248452 C33.5517843,33.4298235 33.274924,33.2704503 33.1238774,33.0114514 L19.6208942,9.87159902 C19.5453709,9.74709956 19.4396208,9.6424957 19.3137195,9.56777865 C18.9109579,9.33867533 18.3974522,9.47316601 18.1658883,9.87159902 L7.66355343,27.8664963 C7.59306796,27.9910131 7.55278304,28.1354429 7.55278304,28.2798814 C7.55278304,28.7380967 7.93039065,29.1116472 8.39357086,29.1116472 C8.39357086,29.1116472 23.3676196,29.1299268 23.6961721,29.1324985 C23.7015166,29.1325419 23.7069487,29.132959 23.7123807,29.1337583 L24.4927587,29.1342448 C24.7945013,29.1343577 25.067857,29.2948778 25.2189036,29.5542502 L26.7024716,32.1838037 C26.9342106,32.5814983 26.7969195,33.0925889 26.3967863,33.3218313 C26.2707097,33.3940896 26.1243944,33.4317609 25.9804445,33.4335332 L13.7936865,33.4298235 L0.841576328,33.4298235 C0.695576345,33.4298235 0.549567601,33.3899802 0.423701318,33.32025 C0.0209309626,33.0911467 -0.120039976,32.5831229 0.111550131,32.1846725 L18.1658883,1.24516829 C18.2414116,1.12066884 18.3470741,1.01606497 18.4729754,0.941347925 C18.875737,0.712244605 19.3892427,0.846735291 19.6208942,1.24516829 L35.6512787,28.7032317 C35.7972437,28.9572436 36.0741915,29.1166255 36.376197,29.1166255 L41.612273,29.1166255 C41.7583255,29.1166255 41.9042905,29.0817604 42.0301918,29.0070521 C42.4329534,28.7779487 42.5739243,28.2699249 42.3422729,27.8714746 L26.9211561,1.24516829 C26.8506269,1.12066884 26.810412,0.976273801 26.810412,0.831791882 C26.810412,0.37358524 27.1879408,8.68802885e-05 27.6511561,0 L30.6165398,0 Z" id="logo"></path>
            </g>
        </g>
    </g>
</svg>