<?xml version="1.0" encoding="UTF-8"?>
<svg width="44px" height="10px" viewBox="0 0 44 10" version="1.1" xmlns="http://www.w3.org/2000/svg" xmlns:xlink="http://www.w3.org/1999/xlink">
    <!-- Generator: Sketch 40.1 (33804) - http://www.bohemiancoding.com/sketch -->
    <title>alat</title>
    <desc>Created with Sketch.</desc>
    <defs></defs>
    <g id="r" stroke="none" stroke-width="1" fill="none" fill-rule="evenodd">
        <g id="mobile-number-copy-15" transform="translate(-225.000000, -190.000000)" fill="#FFFFFF">
            <g id="alat" transform="translate(225.000000, 190.000000)">
                <polygon id="Path" points="39.1587097 2.67468266 39.1587097 9.55243807 41.2141935 9.55243807 41.2141935 2.67468266 43.2 2.67468266 43.2 0.636829205 37.1612903 0.636829205 37.1612903 2.67468266"></polygon>
                <path d="M29.9070968,9.55243807 L31.9393548,9.55243807 L31.9393548,9.22128688 L28.2696774,0.522199948 L27.3754839,0.522199948 L23.7174194,9.22128688 L23.7174194,9.55243807 L25.7496774,9.55243807 L26.2258065,8.43161867 L29.4309677,8.43161867 L29.9070968,9.55243807 Z M28.7574194,6.4829213 L26.8993548,6.4829213 L27.8167742,4.13938983 L28.7574194,6.4829213 Z" id="Combined-Shape"></path>
                <polygon id="Path" points="15.5458065 0.636829205 13.4554839 0.636829205 13.4554839 9.55243807 18.4954839 9.55243807 18.4954839 7.50184803 15.5458065 7.50184803"></polygon>
                <path d="M6.20129032,9.55243807 L8.23354839,9.55243807 L8.23354839,9.22128688 L4.56387097,0.522199948 L3.66967742,0.522199948 L0.0116129032,9.22128688 L0.0116129032,9.55243807 L2.04387097,9.55243807 L2.52,8.43161867 L5.72516129,8.43161867 L6.20129032,9.55243807 Z M5.0516129,6.4829213 L3.19354839,6.4829213 L4.11096774,4.13938983 L5.0516129,6.4829213 Z" id="Combined-Shape"></path>
            </g>
        </g>
    </g>
</svg>