<?xml version="1.0" encoding="UTF-8"?>
<svg width="56px" height="59px" viewBox="0 0 56 59" version="1.1" xmlns="http://www.w3.org/2000/svg" xmlns:xlink="http://www.w3.org/1999/xlink">
    <!-- Generator: Sketch 40.1 (33804) - http://www.bohemiancoding.com/sketch -->
    <title>Group</title>
    <desc>Created with Sketch.</desc>
    <defs>
        <linearGradient x1="2.66422087%" y1="49.9986092%" x2="97.2217793%" y2="49.9986092%" id="linearGradient-1">
            <stop stop-color="#CF0923" offset="0%"></stop>
            <stop stop-color="#BF0444" offset="53.6690848%"></stop>
            <stop stop-color="#B1039D" offset="100%"></stop>
        </linearGradient>
    </defs>
    <g id="r" stroke="none" stroke-width="1" fill="none" fill-rule="evenodd">
        <g id="mobile-number-copy-7" transform="translate(-55.000000, -38.000000)">
            <g id="Group" transform="translate(55.000000, 38.000000)">
                <g id="alat" transform="translate(3.000000, 48.000000)" fill="#37092D">
                    <polygon id="Path" points="43.8577548 2.97747692 43.8577548 10.6338462 46.1598968 10.6338462 46.1598968 2.97747692 48.384 2.97747692 48.384 0.708923077 41.6206452 0.708923077 41.6206452 2.97747692"></polygon>
                    <path d="M33.4959484,10.6338462 L35.7720774,10.6338462 L35.7720774,10.2652062 L31.6620387,0.581316923 L30.6605419,0.581316923 L26.5635097,10.2652062 L26.5635097,10.6338462 L28.8396387,10.6338462 L29.3729032,9.38614154 L32.9626839,9.38614154 L33.4959484,10.6338462 Z M32.2083097,7.21683692 L30.1272774,7.21683692 L31.1547871,4.608 L32.2083097,7.21683692 Z" id="Combined-Shape"></path>
                    <polygon id="Path" points="17.4113032 0.708923077 15.0701419 0.708923077 15.0701419 10.6338462 20.7149419 10.6338462 20.7149419 8.35111385 17.4113032 8.35111385"></polygon>
                    <path d="M6.94544516,10.6338462 L9.22157419,10.6338462 L9.22157419,10.2652062 L5.11153548,0.581316923 L4.11003871,0.581316923 L0.0130064516,10.2652062 L0.0130064516,10.6338462 L2.28913548,10.6338462 L2.8224,9.38614154 L6.41218065,9.38614154 L6.94544516,10.6338462 Z M5.65780645,7.21683692 L3.57677419,7.21683692 L4.60428387,4.608 L5.65780645,7.21683692 Z" id="Combined-Shape"></path>
                </g>
                <path d="M34.2905245,0 C34.6288688,0 34.9390504,0.17196068 35.1082226,0.460270458 L55.8759666,35.8226786 C55.9549594,35.9612916 56,36.1220816 56,36.2828716 C56,36.7929604 55.5771678,37.20879 55.0583667,37.20879 L37.9163426,37.20879 C37.5779984,37.2143318 37.2679149,37.0369163 37.0987427,36.7485969 L21.9754015,10.9891385 C21.8908154,10.8505448 21.7723753,10.734099 21.6313658,10.6509234 C21.1802728,10.3958839 20.6051464,10.5455999 20.3457949,10.9891385 L8.58317984,31.021194 C8.50423611,31.1598071 8.459117,31.3205874 8.459117,31.4813774 C8.459117,31.9914662 8.88203753,32.4073054 9.40079937,32.4073054 C9.40079937,32.4073054 26.171734,32.4276544 26.5397128,32.4305172 C26.5456986,32.4305656 26.5517825,32.4310298 26.5578664,32.4319196 L27.4318897,32.4324612 C27.7698415,32.4325869 28.0759999,32.611279 28.245172,32.9000143 L29.9067682,35.8272532 C30.1663159,36.2699698 30.0125498,36.8389198 29.5644007,37.094114 C29.4231949,37.1745526 29.2593217,37.2164885 29.0980979,37.2184615 L15.4489289,37.2143318 L0.942565487,37.2143318 C0.779045507,37.2143318 0.615515713,37.1699779 0.474545476,37.0923538 C0.0234426781,36.8373143 -0.134444773,36.2717783 0.124936147,35.8282204 L20.3457949,1.38613074 C20.430381,1.24753701 20.548723,1.1310912 20.6897325,1.04791562 C21.1408255,0.792876069 21.7159519,0.942592117 21.9754015,1.38613074 L39.9294322,31.9526541 C40.0929129,32.2354221 40.4030945,32.4128472 40.7413407,32.4128472 L46.6057457,32.4128472 C46.7693246,32.4128472 46.9328053,32.3740352 47.0738148,32.2908693 C47.5249078,32.0358297 47.6827952,31.4702938 47.4233456,31.0267358 L30.1516949,1.38613074 C30.0727021,1.24753701 30.0276615,1.08679536 30.0276615,0.925957 C30.0276615,0.415877909 30.4504937,9.67157928e-05 30.9692948,0 L34.2905245,0 Z" id="logo" fill="url(#linearGradient-1)"></path>
            </g>
        </g>
    </g>
</svg>